<svg xmlns="http://www.w3.org/2000/svg" version="1.1" xmlns:xlink="http://www.w3.org/1999/xlink" viewBox="0 0 200 200"><rect width="200" height="200" fill="url('#gradient')"></rect><defs><linearGradient id="gradient" gradientTransform="rotate(288 0.5 0.5)"><stop offset="0%" stop-color="#3b36f0"></stop><stop offset="100%" stop-color="#4cd9c2"></stop></linearGradient></defs><g><g fill="#445272" transform="matrix(2.2703138496976676,0,0,2.2703138496976676,20.561481437599355,116.67908777200691)" stroke="#87c6bc" stroke-width="0.3"><path d="M10.03-8.30L10.03-5.66L4.50-5.66L4.50 0L1.07 0L1.07-14.22L10.59-14.22L10.59-11.57L4.50-11.57L4.50-8.30L10.03-8.30ZM20.77 0L17.48 0Q17.30-0.32 17.17-0.95L17.17-0.95Q16.26 0.20 14.63 0.20L14.63 0.20Q13.13 0.20 12.09-0.71Q11.04-1.61 11.04-2.98L11.04-2.98Q11.04-4.70 12.31-5.58Q13.58-6.46 16.01-6.46L16.01-6.46L17.02-6.46L17.02-7.01Q17.02-8.47 15.76-8.47L15.76-8.47Q14.59-8.47 14.59-7.31L14.59-7.31L11.30-7.31Q11.30-8.85 12.60-9.80Q13.91-10.76 15.93-10.76Q17.95-10.76 19.12-9.78Q20.29-8.79 20.32-7.07L20.32-7.07L20.32-2.39Q20.34-0.94 20.77-0.17L20.77-0.17L20.77 0ZM15.42-2.15L15.42-2.15Q16.04-2.15 16.44-2.41Q16.85-2.68 17.02-3.01L17.02-3.01L17.02-4.70L16.06-4.70Q14.35-4.70 14.35-3.15L14.35-3.15Q14.35-2.71 14.65-2.43Q14.95-2.15 15.42-2.15ZM24.57-10.57L26.21-3.92L27.88-10.57L31.35-10.57L27.90 0L24.54 0L21.09-10.57L24.57-10.57ZM35.80-10.57L35.80 0L32.50 0L32.50-10.57L35.80-10.57ZM32.30-13.29L32.30-13.29Q32.30-13.99 32.81-14.44Q33.32-14.89 34.13-14.89Q34.94-14.89 35.45-14.44Q35.96-13.99 35.96-13.29Q35.96-12.59 35.45-12.14Q34.94-11.69 34.13-11.69Q33.32-11.69 32.81-12.14Q32.30-12.59 32.30-13.29ZM42.29-2.34L42.29-2.34Q42.99-2.34 43.37-2.72Q43.75-3.10 43.74-3.77L43.74-3.77L46.83-3.77Q46.83-2.03 45.58-0.92Q44.34 0.20 42.37 0.20L42.37 0.20Q40.07 0.20 38.74-1.25Q37.41-2.70 37.41-5.25L37.41-5.25L37.41-5.39Q37.41-6.99 38.00-8.22Q38.59-9.44 39.71-10.10Q40.82-10.76 42.34-10.76L42.34-10.76Q44.40-10.76 45.62-9.62Q46.83-8.48 46.83-6.52L46.83-6.52L43.74-6.52Q43.74-7.34 43.34-7.78Q42.94-8.22 42.27-8.22L42.27-8.22Q40.99-8.22 40.77-6.59L40.77-6.59Q40.70-6.07 40.70-5.17L40.70-5.17Q40.70-3.57 41.08-2.96Q41.46-2.34 42.29-2.34ZM47.81-4.82L47.80-5.38Q47.80-6.96 48.42-8.20Q49.03-9.43 50.19-10.10Q51.34-10.76 52.89-10.76L52.89-10.76Q55.26-10.76 56.63-9.29Q58.00-7.82 58.00-5.29L58.00-5.29L58.00-5.18Q58.00-2.71 56.63-1.25Q55.25 0.20 52.91 0.20L52.91 0.20Q50.65 0.20 49.29-1.16Q47.92-2.51 47.81-4.82L47.81-4.82ZM51.10-5.77L51.09-5.18Q51.09-3.71 51.55-3.03Q52.01-2.34 52.91-2.34L52.91-2.34Q54.67-2.34 54.71-5.05L54.71-5.05L54.71-5.38Q54.71-8.22 52.89-8.22L52.89-8.22Q51.24-8.22 51.10-5.77L51.10-5.77ZM59.38-10.57L62.47-10.57L62.58-9.33Q63.67-10.76 65.60-10.76L65.60-10.76Q67.25-10.76 68.06-9.78Q68.88-8.79 68.91-6.81L68.91-6.81L68.91 0L65.61 0L65.61-6.67Q65.61-7.47 65.28-7.85Q64.96-8.22 64.11-8.22L64.11-8.22Q63.14-8.22 62.68-7.46L62.68-7.46L62.68 0L59.38 0L59.38-10.57Z"></path></g></g></svg>